<?xml version="1.0" encoding="UTF-8" standalone="no"?><!DOCTYPE svg PUBLIC "-//W3C//DTD SVG 1.1//EN" "http://www.w3.org/Graphics/SVG/1.1/DTD/svg11.dtd"><svg width="100%" height="100%" viewBox="0 0 1650 800" version="1.1" xmlns="http://www.w3.org/2000/svg" xmlns:xlink="http://www.w3.org/1999/xlink" xml:space="preserve" xmlns:serif="http://www.serif.com/" style="fill-rule:evenodd;clip-rule:evenodd;stroke-linejoin:round;stroke-miterlimit:2;"><path d="M1629.212,268.169l-92.439,153.599l16.052,106.3l-65.347,0l11.444,-106.3l-78.847,-153.599l63.474,0l34.298,115.191l55.84,-115.191l55.526,0Zm-228.991,0c0.723,0.363 1.439,0.738 2.148,1.124c11.813,6.432 20.967,15.555 27.461,27.368c6.494,11.813 9.741,25.451 9.741,40.913c0,15.462 -3.278,29.1 -9.834,40.913c-6.556,11.813 -15.741,20.936 -27.554,27.368c-4.377,2.383 -9.005,4.325 -13.883,5.826l57.332,116.388l-64.344,0l-34.527,-112.565l-43.112,0l8.369,112.565l-57.808,0l0,-259.9l146.011,0Zm-204.138,-0c0.915,0.482 1.821,0.98 2.718,1.495c14.349,8.226 25.451,19.854 33.306,34.883c7.855,15.029 11.782,32.44 11.782,52.231l0,76.445c0,19.792 1.881,40.87 -5.974,55.9c-7.855,15.029 -11.926,22.683 -26.275,30.909c-5.77,3.308 -13.976,6 -22.949,8.037l-87.04,-0c-2.428,-0.874 -4.735,-1.912 -6.887,-3.146c-14.349,-8.226 -23.922,-14.046 -31.777,-29.075c-7.855,-15.029 -8.725,-42.833 -8.725,-62.625l0,-76.445c0,-19.792 3.927,-37.202 11.782,-52.231c7.855,-15.029 18.957,-26.657 33.306,-34.883c0.897,-0.514 1.803,-1.013 2.718,-1.495l94.017,-0Zm-125.624,0l-5.69,28.214l-68.354,0l10.746,231.686l-62.889,0l12.873,-231.686l-67.511,0l-6.251,-28.214l187.077,0Zm-202.355,0l21.402,259.9l-94.216,0l-86.707,-187.4l26.249,187.4l-68.053,0c0.137,-18.062 1.421,-189.063 1.421,-231.607c0,-7.625 -4.69,-20.186 -8.091,-28.292l47.223,0l121.465,192.02l-16.748,-192.02l56.055,0Zm-226.231,0l14.784,29.706l-154.203,-1.326l-0.218,81.659l115.354,0l12.687,42.713l-128.14,-5.847l-0.211,78.933l148.761,-1.325l-11.975,35.386l-205.68,0l30.747,-259.9l178.095,0Zm-189.383,0l-54.283,259.9l-66.504,0l-55.969,-259.9l41.306,0l46.986,205.05l46.211,-205.05l42.253,0Zm-186.696,0l39.542,259.9l-93.801,0l-78.525,-185.87l25.626,185.87l-66.327,0l-12.758,-259.9l52.317,0l93.387,147.633l-14.138,-147.633l54.675,0Zm-197.504,0l10.766,259.9l-49.044,0l-13.476,-259.9l51.754,0Zm1226.447,27.471l6.235,83.867l61.782,0c7.174,0 13.545,-1.732 19.111,-5.195c5.566,-3.464 9.865,-8.381 12.896,-14.751c3.031,-6.37 4.546,-13.7 4.546,-21.987c0,-8.288 -1.515,-15.617 -4.546,-21.987c-3.031,-6.37 -7.298,-11.287 -12.803,-14.751c-5.505,-3.464 -11.906,-5.195 -19.204,-5.195l-68.017,0Zm-145.663,199.741c11.133,0 20.936,-2.505 29.409,-7.515c8.473,-5.01 15.029,-12.122 19.668,-21.338c4.639,-9.215 6.958,-19.884 6.958,-32.007l0,-79.043c0,-12.122 -2.319,-22.791 -6.958,-32.007c-4.639,-9.215 -11.195,-16.328 -19.668,-21.338c-8.473,-5.01 -50.345,-5.01 -58.818,0c-8.473,5.01 -15.029,12.122 -19.668,21.338c-4.639,9.215 -6.958,19.884 -6.958,32.007l0,79.043c0,12.122 2.319,22.791 6.958,32.007c4.639,9.215 11.195,16.328 19.668,21.338c8.473,5.01 18.276,7.515 29.409,7.515Z"/><path d="M1594.247,213.512l0,19.24c0,5.309 -4.311,9.62 -9.62,9.62l-273.445,0c-5.309,0 -9.62,-4.311 -9.62,-9.62l0,-19.24c0,-5.309 4.311,-9.62 9.62,-9.62l273.445,0c5.309,0 9.62,4.311 9.62,9.62Z"/><path d="M1375.958,156.877l0,19.24c0,5.309 -4.311,9.62 -9.62,9.62l-55.155,0c-5.309,0 -9.62,-4.311 -9.62,-9.62l0,-19.24c0,-5.309 4.311,-9.62 9.62,-9.62l55.155,0c5.309,0 9.62,4.311 9.62,9.62Z"/><path d="M1594.247,156.877l0,19.24c0,5.309 -4.311,9.62 -9.62,9.62l-55.155,0c-5.309,0 -9.62,-4.311 -9.62,-9.62l0,-19.24c0,-5.309 4.311,-9.62 9.62,-9.62l55.155,0c5.309,0 9.62,4.311 9.62,9.62Z"/><path d="M1507.025,156.877l0,19.24c0,5.309 -4.311,9.62 -9.62,9.62l-99,0c-5.309,0 -9.62,-4.311 -9.62,-9.62l0,-19.24c0,-5.309 4.311,-9.62 9.62,-9.62l99,0c5.309,0 9.62,4.311 9.62,9.62Z"/><path d="M1388.785,93.686l0,19.24c0,5.309 -4.311,9.62 -9.62,9.62l-67.982,0c-5.309,0 -9.62,-4.311 -9.62,-9.62l0,-19.24c0,-5.309 4.311,-9.62 9.62,-9.62l67.982,0c5.309,0 9.62,4.311 9.62,9.62Z"/><path d="M1594.247,93.686l0,19.24c0,5.309 -4.311,9.62 -9.62,9.62l-170.714,0c-5.309,0 -9.62,-4.311 -9.62,-9.62l0,-19.24c0,-5.309 4.311,-9.62 9.62,-9.62l170.714,0c5.309,0 9.62,4.311 9.62,9.62Z"/><path d="M160.065,561.848l0,19.24c0,5.309 -4.311,9.62 -9.62,9.62l-117.968,0c-5.309,0 -9.62,-4.311 -9.62,-9.62l0,-19.24c0,-5.309 4.311,-9.62 9.62,-9.62l117.968,0c5.309,0 9.62,4.311 9.62,9.62Z"/><path d="M318.34,561.848l0,19.24c0,5.309 -4.311,9.62 -9.62,9.62l-117.968,0c-5.309,0 -9.62,-4.311 -9.62,-9.62l0,-19.24c0,-5.309 4.311,-9.62 9.62,-9.62l117.968,0c5.309,0 9.62,4.311 9.62,9.62Z"/><path d="M476.615,561.848l0,19.24c0,5.309 -4.311,9.62 -9.62,9.62l-117.968,0c-5.309,0 -9.62,-4.311 -9.62,-9.62l0,-19.24c0,-5.309 4.311,-9.62 9.62,-9.62l117.968,0c5.309,0 9.62,4.311 9.62,9.62Z"/></svg>