<?xml version="1.0" encoding="UTF-8" standalone="no"?><!DOCTYPE svg PUBLIC "-//W3C//DTD SVG 1.1//EN" "http://www.w3.org/Graphics/SVG/1.1/DTD/svg11.dtd"><svg width="100%" height="100%" viewBox="0 0 1500 850" version="1.1" xmlns="http://www.w3.org/2000/svg" xmlns:xlink="http://www.w3.org/1999/xlink" xml:space="preserve" xmlns:serif="http://www.serif.com/" style="fill-rule:evenodd;clip-rule:evenodd;stroke-linejoin:round;stroke-miterlimit:2;"><path d="M907.622,329.237c3.358,-1.796 135.246,-51.601 138.818,-53.142l96.293,-34.904c60.201,-25.962 127.443,-4.449 150.066,48.01l16.085,35.976c-18.345,4.527 -28.15,11.348 -41.934,19.864l-6.347,-25.187c-18.485,-42.864 -73.429,-60.442 -122.619,-39.229l-235.063,100.737l4.701,-52.125Zm359.63,286.458c14.264,15.1 30.96,18.931 25.414,21.323l-204.126,78.448c-60.201,25.962 -127.443,4.449 -150.066,-48.01l-11.01,-31.915l62.824,0.409c18.951,42.053 54.653,53.233 103.414,32.205l158.82,-66.953l14.73,14.492Z"/><path d="M1343.318,329.237c17.09,0 32.847,3.657 47.271,10.972c14.424,7.314 26.489,17.671 36.196,31.069c9.707,13.398 22.458,50.133 25.876,67.769l-52.394,-15.028c-2.461,-9.98 -5.747,-24.748 -11.626,-31.926c-5.879,-7.178 -12.783,-12.646 -20.713,-16.406c-7.93,-3.76 -16.133,-5.64 -24.609,-5.64c-12.305,0 -23.105,2.939 -32.402,8.818c-9.297,5.879 -16.475,14.116 -21.533,24.712c-5.059,10.596 -7.588,22.935 -7.588,37.017l0,87.979c0,12.852 2.598,24.097 7.793,33.735c5.195,9.639 12.544,17.124 22.046,22.456c9.502,5.332 20.474,7.998 32.915,7.998c12.305,0 23.105,-2.769 32.402,-8.306c9.297,-5.537 16.475,-13.569 21.533,-24.097c5.059,-10.527 7.588,-23.037 7.588,-37.529l0,-12.92l-67.57,-0.884l-30.057,-76.235l140.489,37.129l0,52.09c0,22.148 -4.307,41.665 -12.92,58.55c-8.613,16.885 -20.815,29.941 -36.606,39.17c-5.264,3.076 -10.805,5.64 -16.623,7.69l-78.018,0c-5.481,-1.866 -10.712,-4.156 -15.692,-6.87c-15.928,-8.682 -28.267,-20.952 -37.017,-36.812c-8.75,-15.859 -13.125,-34.248 -13.125,-55.166l0,-87.979c0,-22.148 4.307,-41.631 12.92,-58.447c8.613,-16.816 20.815,-29.839 36.606,-39.067c15.791,-9.229 34.077,-13.843 54.858,-13.843Zm-183.731,-12.691c22.916,8.551 48.855,32.359 57.537,48.971c8.682,16.611 6.834,51.767 6.834,73.642l0,84.492c0,21.875 -4.341,41.118 -13.022,57.729c-8.682,16.611 -20.952,29.463 -36.812,38.555c-5.207,2.985 -10.68,5.48 -16.418,7.485l-77.086,0c-5.738,-2.005 -11.21,-4.5 -16.418,-7.485c-15.859,-9.092 -28.13,-21.943 -36.812,-38.555c-8.682,-16.611 -13.022,-35.854 -13.022,-57.729l0,-84.492c0,-21.875 0.159,-56.147 8.84,-72.758c5.793,-11.084 12.884,-25.181 23.011,-33.49c10.127,-8.309 37.753,-16.364 37.753,-16.364c0,0 52.699,-8.551 75.615,0Zm-261.935,12.691l-28.731,259.688l154.288,-10.13l-16.629,48.625l-183.755,0l9.305,-298.184l65.521,0Zm-203.621,0l70.692,191.766l49.941,-6.606l-9.194,43.36l-26.812,1.046l25.295,68.617l-45.117,0l-23,-66.946l-120.913,4.717l-21.38,62.229l-45.117,0l22.304,-60.505l-19.034,0.743l0.707,-18.569l26.174,-3.462l79.77,-216.391l35.684,0Zm-51.561,0l-17.446,39.785l-84.287,0l0,258.398l-41.836,0l0,-258.398l-84.287,0l-15.538,-39.785l243.394,0Zm-268.756,0l71.3,193.416l48.908,0.129l-34.416,39.184l24.129,65.455l-45.117,0l-22.485,-65.447l-120.331,0.024l-22.477,65.423l-45.117,0l109.922,-298.184l35.684,0Zm-196.608,0c7.36,1.822 14.416,4.454 21.171,7.896c14.355,7.314 26.353,17.671 35.991,31.069c9.639,13.398 28.19,40.232 31.608,57.868l-51.659,2.942c0,0 -10.163,-31.86 -16.247,-39.175c-6.084,-7.314 -13.228,-12.954 -21.431,-16.919c-8.203,-3.965 -16.68,-5.947 -25.43,-5.947c-12.168,0 -22.832,2.939 -31.992,8.818c-9.16,5.879 -16.27,14.116 -21.328,24.712c-5.059,10.596 -7.588,22.935 -7.588,37.017l0,81.826c0,13.945 2.529,26.25 7.588,36.914c5.059,10.664 12.168,18.901 21.328,24.712c9.16,5.811 19.824,8.716 31.992,8.716c8.887,0 17.397,-1.846 25.532,-5.537c8.135,-3.691 15.244,-9.16 21.328,-16.406c6.084,-7.246 29.435,-28.985 29.77,-29.008l41.956,-44.357c-3.418,17.637 -25.822,80.68 -35.529,94.078c-9.707,13.398 -21.738,23.755 -36.094,31.069c-6.754,3.441 -13.796,6.073 -21.125,7.896l-53.466,0c-9.632,-2.283 -18.572,-5.838 -26.82,-10.664c-15.654,-9.16 -27.788,-22.148 -36.401,-38.965c-8.613,-16.816 -12.92,-36.299 -12.92,-58.447l0,-81.826c0,-22.148 4.307,-41.631 12.92,-58.447c8.613,-16.816 20.747,-29.839 36.401,-39.067c8.275,-4.878 17.247,-8.467 26.916,-10.767l53.53,0Zm547.013,197.138l-47.931,-139.511l-52.495,152.795l100.426,-13.285Zm395.043,65.978c12.305,0 23.14,-2.769 32.505,-8.306c9.365,-5.537 16.611,-13.398 21.738,-23.584c5.127,-10.186 7.69,-21.978 7.69,-35.376l0,-87.363c0,-13.398 -2.563,-25.19 -7.69,-35.376c-5.127,-10.186 -12.373,-18.047 -21.738,-23.584c-9.365,-5.537 -20.2,-8.306 -32.505,-8.306c-12.305,0 -23.14,2.769 -32.505,8.306c-9.365,5.537 -16.611,13.398 -21.738,23.584c-5.127,10.186 -7.69,21.978 -7.69,35.376l0,87.363c0,13.398 2.563,25.19 7.69,35.376c5.127,10.186 12.373,18.047 21.738,23.584c9.365,5.537 20.2,8.306 32.505,8.306Zm-716.677,-69.811l-46.614,-135.677l-46.529,135.432l93.143,0.245Z"/><path d="M905.49,322.98c-1.688,-9.222 -2.569,-18.723 -2.569,-28.43c0,-86.745 70.426,-157.172 157.172,-157.172c52.71,0 121.213,42.924 149.733,82.791c-7.22,-3.138 -51.915,1.63 -53.277,6.167c-21.869,-25.607 -60.175,-50.98 -96.455,-50.98c-65.785,0 -119.194,53.409 -119.194,119.194c0,4.346 0.233,8.638 0.687,12.863l-36.096,15.566Z"/></svg>