<?xml version="1.0" encoding="UTF-8" standalone="no"?><!DOCTYPE svg PUBLIC "-//W3C//DTD SVG 1.1//EN" "http://www.w3.org/Graphics/SVG/1.1/DTD/svg11.dtd"><svg width="100%" height="100%" viewBox="0 0 360 168" version="1.1" xmlns="http://www.w3.org/2000/svg" xmlns:xlink="http://www.w3.org/1999/xlink" xml:space="preserve" xmlns:serif="http://www.serif.com/" style="fill-rule:evenodd;clip-rule:evenodd;stroke-linejoin:round;stroke-miterlimit:2;"><g id="Capa2"><path d="M337.995,137.144c2.145,7.971 -1.116,12.538 -1.116,12.538l-81.828,0c0,0 2.368,-15.234 3.603,-30.624c0.801,-9.974 -0.193,-21.511 -0.992,-28.396l80.333,46.482Zm-65.208,-21.344c0,0 1.655,16.349 -1.155,21.141l41.533,0l-40.378,-21.141Zm-21.861,-29.036c1.302,12.928 -0.813,48.659 -19.27,62.917l-32.81,0c-20.565,-18.801 -19.951,-77.058 -18.49,-103.751l18.509,10.71c-0.164,22.476 1.352,68.622 16.532,69.612c14.622,0.954 16.721,-32.222 16.782,-50.336l18.748,10.848Zm-76.93,-39.875c-0.558,14.136 -1.522,36.406 -2.075,37.022c-15.271,16.984 -34.281,23.62 -34.07,24.042c9.474,18.948 28.308,33.258 41.978,41.728l-32.157,0c-14.222,-11.375 -28.234,-27.696 -28.234,-27.696l-2.851,27.696l-19.86,0c2.698,-15.189 7.637,-44.445 9.019,-62.446c1.013,-13.198 -0.137,-31.516 -1.46,-45.949c5.401,7.239 14.25,13.419 25.126,16.723c19.037,5.784 37.815,0.794 44.584,-11.121Zm-56.48,20.047c2.438,10.703 0.011,26.776 0.011,26.776c22.455,5.386 40.827,-15.025 40.827,-15.025c0,0 0.057,-8.76 -0.394,-8.562c-22.733,9.997 -40.445,-3.189 -40.445,-3.189Zm-85.782,82.745c-10.098,-4.723 -16.9,-11.012 -0.995,-16.613c30.39,-10.703 31.777,-27.878 31.777,-27.878c0,0 -33.703,12.684 -31.324,-0.529c10.347,-57.484 63.744,-86.344 63.744,-86.344c0,0 1.263,20.28 0,21.402c-30.511,27.115 -32.42,47.237 -32.42,47.237c0,0 28.662,-11.892 32.42,-6.216c12.172,18.383 -19.386,53.697 -34.517,68.941l-28.684,0Z"/></g></svg>